# Blender v2.69 (sub 0) OBJ File: ''
# www.blender.org
o Cylinder
v 0.000000 -1.000000 -1.000000
v 0.000000 1.000000 -1.000000
v 0.195090 -1.000000 -0.980785
v 0.195090 1.000000 -0.980785
v 0.382683 -1.000000 -0.923880
v 0.382683 1.000000 -0.923880
v 0.555570 -1.000000 -0.831470
v 0.555570 1.000000 -0.831470
v 0.707107 -1.000000 -0.707107
v 0.707107 1.000000 -0.707107
v 0.831470 -1.000000 -0.555570
v 0.831470 1.000000 -0.555570
v 0.923880 -1.000000 -0.382683
v 0.923880 1.000000 -0.382683
v 0.980785 -1.000000 -0.195090
v 0.980785 1.000000 -0.195090
v 1.000000 -1.000000 -0.000000
v 1.000000 1.000000 -0.000000
v 0.980785 -1.000000 0.195090
v 0.980785 1.000000 0.195090
v 0.923880 -1.000000 0.382683
v 0.923880 1.000000 0.382683
v 0.831470 -1.000000 0.555570
v 0.831470 1.000000 0.555570
v 0.707107 -1.000000 0.707107
v 0.707107 1.000000 0.707107
v 0.555570 -1.000000 0.831470
v 0.555570 1.000000 0.831470
v 0.382683 -1.000000 0.923880
v 0.382683 1.000000 0.923880
v 0.195090 -1.000000 0.980785
v 0.195090 1.000000 0.980785
v -0.000000 -1.000000 1.000000
v -0.000000 1.000000 1.000000
v -0.195091 -1.000000 0.980785
v -0.195091 1.000000 0.980785
v -0.382684 -1.000000 0.923879
v -0.382684 1.000000 0.923879
v -0.555571 -1.000000 0.831469
v -0.555571 1.000000 0.831469
v -0.707107 -1.000000 0.707106
v -0.707107 1.000000 0.707106
v -0.831470 -1.000000 0.555570
v -0.831470 1.000000 0.555570
v -0.923880 -1.000000 0.382683
v -0.923880 1.000000 0.382683
v -0.980785 -1.000000 0.195089
v -0.980785 1.000000 0.195089
v -1.000000 -1.000000 -0.000001
v -1.000000 1.000000 -0.000001
v -0.980785 -1.000000 -0.195091
v -0.980785 1.000000 -0.195091
v -0.923879 -1.000000 -0.382684
v -0.923879 1.000000 -0.382684
v -0.831469 -1.000000 -0.555571
v -0.831469 1.000000 -0.555571
v -0.707106 -1.000000 -0.707108
v -0.707106 1.000000 -0.707108
v -0.555569 -1.000000 -0.831470
v -0.555569 1.000000 -0.831470
v -0.382682 -1.000000 -0.923880
v -0.382682 1.000000 -0.923880
v -0.195089 -1.000000 -0.980786
v -0.195089 1.000000 -0.980786
vn 0.098017 0.000000 -0.995185
vn 0.290285 0.000000 -0.956940
vn 0.471396 0.000000 -0.881921
vn 0.634393 0.000000 -0.773010
vn 0.773010 0.000000 -0.634393
vn 0.881921 0.000000 -0.471397
vn 0.956940 0.000000 -0.290285
vn 0.995185 0.000000 -0.098017
vn 0.995185 0.000000 0.098017
vn 0.956940 0.000000 0.290285
vn 0.881921 0.000000 0.471396
vn 0.773010 0.000000 0.634393
vn 0.634393 0.000000 0.773011
vn 0.471397 0.000000 0.881921
vn 0.290285 0.000000 0.956940
vn 0.098017 0.000000 0.995185
vn -0.098018 0.000000 0.995185
vn -0.290285 0.000000 0.956940
vn -0.471397 0.000000 0.881921
vn -0.634394 0.000000 0.773010
vn -0.773011 0.000000 0.634393
vn -0.881922 0.000000 0.471396
vn -0.956941 0.000000 0.290284
vn -0.995185 0.000000 0.098016
vn -0.995185 0.000000 -0.098018
vn -0.956940 0.000000 -0.290286
vn -0.881921 0.000000 -0.471398
vn -0.773009 0.000000 -0.634395
vn -0.634392 0.000000 -0.773011
vn -0.471395 0.000000 -0.881922
vn 0.000000 1.000000 -0.000002
vn -0.098017 0.000000 -0.995185
vn -0.290283 0.000000 -0.956941
vn 0.000000 -1.000000 0.000000
vn 0.471397 0.000000 -0.881921
vn 0.881921 0.000000 -0.471396
vn 0.290284 0.000000 0.956941
vn 0.634394 0.000000 0.773010
vn 0.000000 1.000000 0.000000
vn -0.098017 0.000000 0.995185
vn 0.000000 -1.000000 0.000001
vn 0.000000 1.000000 0.000001
vn 0.000000 1.000000 0.000004
vn -0.773010 0.000000 -0.634394
vn 0.000000 1.000000 -0.000001
vn 0.000000 1.000000 -0.000004
vn -0.098016 0.000000 -0.995185
vn 0.000000 -1.000000 -0.000002
vn 0.000000 -1.000000 -0.000001
vn 0.000000 -1.000000 0.000004
vn 0.000000 -1.000000 -0.000005
s off
f 1//1 2//1 4//1
f 3//2 4//2 6//2
f 5//3 6//3 8//3
f 7//4 8//4 10//4
f 9//5 10//5 12//5
f 11//6 12//6 14//6
f 13//7 14//7 16//7
f 15//8 16//8 18//8
f 17//9 18//9 20//9
f 19//10 20//10 21//10
f 21//11 22//11 24//11
f 23//12 24//12 25//12
f 25//13 26//13 28//13
f 27//14 28//14 30//14
f 29//15 30//15 31//15
f 31//16 32//16 33//16
f 33//17 34//17 36//17
f 35//18 36//18 38//18
f 37//19 38//19 39//19
f 39//20 40//20 41//20
f 41//21 42//21 43//21
f 43//22 44//22 46//22
f 45//23 46//23 48//23
f 47//24 48//24 49//24
f 49//25 50//25 52//25
f 51//26 52//26 54//26
f 53//27 54//27 55//27
f 55//28 56//28 57//28
f 57//29 58//29 59//29
f 59//30 60//30 61//30
f 6//31 4//31 58//31
f 63//32 64//32 2//32
f 61//33 62//33 64//33
f 1//34 3//34 63//34
f 3//1 1//1 4//1
f 5//2 3//2 6//2
f 7//35 5//35 8//35
f 9//4 7//4 10//4
f 11//5 9//5 12//5
f 13//36 11//36 14//36
f 15//7 13//7 16//7
f 17//8 15//8 18//8
f 19//9 17//9 20//9
f 30//37 32//37 31//37
f 23//11 21//11 24//11
f 48//24 50//24 49//24
f 27//38 25//38 28//38
f 29//14 27//14 30//14
f 27//34 29//34 63//34
f 32//39 6//39 36//39
f 35//40 33//40 36//40
f 37//18 35//18 38//18
f 51//34 53//34 47//34
f 42//21 44//21 43//21
f 26//39 24//39 22//39
f 45//22 43//22 46//22
f 47//23 45//23 48//23
f 17//34 19//34 21//34
f 51//25 49//25 52//25
f 53//26 51//26 54//26
f 54//39 52//39 50//39
f 58//29 60//29 59//29
f 38//19 40//19 39//19
f 20//10 22//10 21//10
f 62//39 60//39 58//39
f 37//41 41//41 31//41
f 4//42 64//42 58//42
f 64//39 62//39 58//39
f 6//39 58//39 54//39
f 57//34 41//34 53//34
f 6//39 54//39 50//39
f 60//30 62//30 61//30
f 50//39 48//39 6//39
f 48//39 46//39 6//39
f 46//39 44//39 6//39
f 6//39 44//39 40//39
f 40//20 42//20 41//20
f 40//43 38//43 36//43
f 6//39 40//39 36//39
f 56//44 58//44 57//44
f 28//39 32//39 30//39
f 32//45 28//45 22//45
f 4//46 2//46 64//46
f 28//39 26//39 22//39
f 20//39 32//39 22//39
f 10//39 14//39 12//39
f 10//39 16//39 14//39
f 18//42 32//42 20//42
f 16//39 32//39 18//39
f 10//39 32//39 16//39
f 8//39 6//39 10//39
f 24//12 26//12 25//12
f 1//47 63//47 2//47
f 63//33 61//33 64//33
f 3//34 5//34 63//34
f 5//34 7//34 63//34
f 7//34 9//34 63//34
f 9//48 11//48 63//48
f 11//34 13//34 63//34
f 63//34 13//34 21//34
f 32//16 34//16 33//16
f 13//34 15//34 21//34
f 15//34 17//34 21//34
f 21//49 23//49 63//49
f 23//34 25//34 63//34
f 49//34 51//34 47//34
f 25//34 27//34 63//34
f 58//39 56//39 54//39
f 35//50 31//50 33//50
f 29//34 31//34 41//34
f 6//39 32//39 10//39
f 41//34 37//34 39//34
f 35//51 37//51 31//51
f 61//34 63//34 29//34
f 47//34 43//34 45//34
f 41//34 61//34 29//34
f 61//34 41//34 57//34
f 53//34 43//34 47//34
f 59//34 61//34 57//34
f 54//27 56//27 55//27
f 55//34 57//34 53//34
f 36//43 34//43 32//43
f 43//34 53//34 41//34
f 44//39 42//39 40//39
